<?xml version="1.0" encoding="iso-8859-1"?>
<!-- Generator: Adobe Illustrator 16.0.0, SVG Export Plug-In . SVG Version: 6.00 Build 0)  -->
<!DOCTYPE svg PUBLIC "-//W3C//DTD SVG 1.1//EN" "http://www.w3.org/Graphics/SVG/1.1/DTD/svg11.dtd">
<svg version="1.1" id="Capa_1" xmlns="http://www.w3.org/2000/svg" xmlns:xlink="http://www.w3.org/1999/xlink" x="0px" y="0px"
	 width="984.4px" height="984.4px" viewBox="0 0 984.4 984.4" style="enable-background:new 0 0 984.4 984.4;" xml:space="preserve"
	>
<g>
	<path d="M292.6,369.861v-108.7v-38.5c0-11-9-20-20-20h-18.5c-11,0-20,9-20,20v38.5h-54.5v-38.5c0-10.5-8-19-18.3-19.9v-53.8
		l116.7-37.7c8.3-2.7,9.2-14.1,1.4-18l-134-67.1c-6.5-3.2-14.1,1.5-14.1,8.7v167.8c-10.2,0.9-18.3,9.5-18.3,19.9v38.5H58.5v-38.5
		c0-11-9-20-20-20H20c-11,0-20,9-20,20v38.5v108.7c0,5.3,2.1,10.4,5.9,14.1l46.8,46.8c3.8,3.8,5.9,8.8,5.9,14.1v494.4
		c0,11,9,20,20,20h154.5l1-514.4c0-5.3,2.1-10.399,5.9-14.1l46.8-46.8C290.5,380.261,292.6,375.162,292.6,369.861z M142,670.761h-10
		c-8.3,0-15-6.7-15-15v-72.8c0-16.2,13.1-29.3,29.3-29.3c1.7,0,3.4,0.2,5,0.399c13.8,2.4,24.3,14.301,24.3,28.801v72.8
		c0,8.3-6.7,15-15,15H142V670.761z"/>
	<path d="M964.199,202.662h-18.5c-11,0-20,9-20,20v38.5h-54.5v-38.5c0-10.7-8.398-19.4-18.898-19.9v-53.7L969,111.361
		c8.301-2.7,9.199-14.1,1.4-18l-134-67.1c-6.5-3.2-14.1,1.5-14.1,8.7v167.8c-9.9,1.2-17.602,9.6-17.602,19.8v38.5h-54.6v-38.5
		c0-11-9-20-20-20h-18.5c-11,0-20,9-20,20v38.5v108.7c0,5.3,2.1,10.4,5.9,14.1l46.801,46.8c3.799,3.8,5.898,8.8,5.898,14.1l1,514.4
		h154.602c11,0,20-9,20-20v-494.2c0-5.3,2.1-10.4,5.898-14.1l46.801-46.8c3.801-3.8,5.9-8.8,5.9-14.1v-108.8v-38.5
		C984.199,211.562,975.199,202.662,964.199,202.662z M867.199,655.761c0,8.3-6.699,15-15,15h-10h-18.5c-8.299,0-15-6.7-15-15v-72.8
		c0-14.5,10.5-26.5,24.301-28.8c1.6-0.3,3.301-0.4,5-0.4c16.199,0,29.301,13,29.301,29.3v72.7H867.199z"/>
	<path d="M667.6,493.261c0-11-9-20-20-20h-77c-11,0-20,9-20,20v38.5h-58.5h-58.5v-38.5c0-11-9-20-20-20h-77c-11,0-20,9-20,20
		l-0.1,39.101l-43.4,0.1v426.8h82c11,0,20-9,20-20v-97c0-64.7,52.4-117,117-117c64.599,0,117,52.3,117,117v97c0,11,9,20,20,20h79
		v-426.8l-40.4-0.1L667.6,493.261z"/>
</g>
<g>
</g>
<g>
</g>
<g>
</g>
<g>
</g>
<g>
</g>
<g>
</g>
<g>
</g>
<g>
</g>
<g>
</g>
<g>
</g>
<g>
</g>
<g>
</g>
<g>
</g>
<g>
</g>
<g>
</g>
</svg>
